<?xml version="1.0" standalone="no"?>
<!DOCTYPE svg PUBLIC "-//W3C//DTD SVG 20010904//EN"
 "http://www.w3.org/TR/2001/REC-SVG-20010904/DTD/svg10.dtd">
<svg version="1.0" xmlns="http://www.w3.org/2000/svg"
 width="1080.000000pt" height="1080.000000pt" viewBox="0 0 1080.000000 1080.000000"
 preserveAspectRatio="xMidYMid meet">
<metadata>
Created by potrace 1.11, written by Peter Selinger 2001-2013
</metadata>
<g transform="translate(0.000000,1080.000000) scale(0.100000,-0.100000)"
fill="#000000" stroke="none">
<path d="M0 5400 l0 -5400 5400 0 5400 0 0 5400 0 5400 -5400 0 -5400 0 0
-5400z m6705 2704 c162 -26 330 -88 404 -149 49 -42 43 -72 -50 -269 -94 -200
-124 -236 -193 -236 -24 0 -98 12 -163 26 -157 35 -401 44 -545 20 -258 -42
-481 -153 -666 -330 -172 -165 -285 -362 -344 -603 l-22 -88 -6 -1915 c-5
-1862 -6 -1916 -24 -1947 -11 -17 -36 -41 -56 -52 -35 -20 -53 -21 -254 -21
-254 0 -278 6 -315 83 l-21 43 0 2604 c0 2583 0 2604 20 2645 13 26 34 49 59
63 36 20 52 22 225 22 199 0 218 -4 263 -52 35 -38 42 -67 63 -301 12 -122 24
-230 28 -240 6 -14 18 -3 62 55 30 40 93 112 140 161 376 396 862 563 1395
481z"/>
</g>
</svg>
